<svg width="1024" height="768" viewBox="0 0 1024 768" fill="none" xmlns="http://www.w3.org/2000/svg">
<g clip-path="url(#clip0_1_2)">
<rect width="1024" height="768" fill="#2E2D2D"/>
<path d="M399.245 354.587C399.245 325.056 390.828 309.896 373.993 309.065C367.295 308.749 360.755 309.817 354.392 312.287C349.314 314.106 345.896 315.905 344.098 317.723V388.209C354.866 394.969 364.43 398.112 372.768 397.618C390.413 396.452 399.245 382.121 399.245 354.587ZM420.012 355.813C420.012 370.815 416.495 383.268 409.421 393.171C401.537 404.378 390.611 410.15 376.641 410.466C366.109 410.802 355.262 407.501 344.098 400.583V464.645L326.038 458.201V316.003C329.002 312.366 332.815 309.243 337.439 306.595C348.188 300.329 361.248 297.107 376.621 296.949L376.878 297.206C390.927 297.028 401.755 302.8 409.362 314.501C416.456 325.234 420.012 338.992 420.012 355.813Z" fill="#CE3434"/>
<path d="M530.387 397.855C530.387 417.977 528.371 431.912 524.34 439.661C520.29 447.409 512.584 453.596 501.202 458.201C491.975 461.838 481.997 463.815 471.287 464.151L468.304 452.766C479.191 451.283 486.857 449.801 491.303 448.318C500.056 445.353 506.063 440.807 509.363 434.719C512.011 429.758 513.315 420.29 513.315 406.276V401.571C500.965 407.185 488.023 409.972 474.488 409.972C465.597 409.972 457.752 407.185 450.995 401.571C443.407 395.464 439.613 387.715 439.613 378.326V303.136L457.673 296.949V372.634C457.673 380.718 460.281 386.944 465.498 391.313C470.714 395.681 477.472 397.776 485.751 397.618C494.03 397.44 502.902 394.238 512.327 387.972V299.677H530.387V397.855Z" fill="#CE3434"/>
<path d="M600.887 409.478C598.734 409.656 596.758 409.735 594.94 409.735C584.724 409.735 576.761 407.304 571.071 402.421C565.4 397.539 562.555 390.799 562.555 382.2V311.042H550.185V299.677H562.555V269.494L580.595 263.07V299.677H600.887V311.042H580.595V381.706C580.595 388.486 582.413 393.289 586.048 396.096C589.17 398.409 594.13 399.733 600.887 400.069V409.478Z" fill="#CE3434"/>
<path d="M710.234 407.995H692.175V338.26C692.175 331.164 690.515 325.056 687.215 319.957C683.402 314.185 678.106 311.299 671.309 311.299C663.03 311.299 652.676 315.667 640.248 324.404V407.995H622.188V241.307L640.248 235.614V311.536C651.787 303.136 664.393 298.925 678.086 298.925C687.65 298.925 695.395 302.147 701.323 308.571C707.271 314.995 710.234 323.001 710.234 332.568V407.995Z" fill="#CE3434"/>
<path d="M806.224 351.741C806.224 340.395 804.071 331.026 799.783 323.613C794.685 314.58 786.762 309.817 776.052 309.322C756.253 310.469 746.374 324.661 746.374 351.859C746.374 364.332 748.429 374.749 752.578 383.11C757.874 393.764 765.817 399.021 776.408 398.844C796.285 398.685 806.224 382.991 806.224 351.741ZM826.003 351.859C826.003 368.008 821.874 381.449 813.634 392.182C804.565 404.2 792.037 410.229 776.052 410.229C760.205 410.229 747.856 404.2 738.944 392.182C730.863 381.449 726.832 368.008 726.832 351.859C726.832 336.679 731.199 323.91 739.932 313.513C749.16 302.483 761.292 296.949 776.289 296.949C791.286 296.949 803.498 302.483 812.903 313.513C821.636 323.91 826.003 336.679 826.003 351.859Z" fill="#CE3434"/>
<path d="M929.541 407.995H911.481V334.307C911.481 326.223 909.051 319.917 904.19 315.371C899.329 310.844 892.848 308.65 884.767 308.828C876.191 308.986 868.031 311.793 860.285 317.229V407.995H842.225V314.995C852.619 307.425 862.182 302.483 870.916 300.171C879.155 298.016 886.427 296.949 892.69 296.949C896.978 296.949 901.009 297.364 904.803 298.194C911.896 299.835 917.666 302.879 922.112 307.346C927.071 312.287 929.541 318.217 929.541 325.155V407.995Z" fill="#CE3434"/>
<path d="M147.665 241.975C138.373 242.018 129.5 242.81 121.692 244.193C98.6911 248.257 94.515 256.766 94.515 272.456V293.179H148.869V300.087H94.515H74.1165C58.3197 300.087 44.4876 309.585 40.1611 327.654C35.1706 348.365 34.9492 361.289 40.1611 382.914C44.0248 399.011 53.2518 410.481 69.0485 410.481H87.7366V385.639C87.7366 367.692 103.259 351.862 121.692 351.862H175.982C191.095 351.862 203.159 339.414 203.159 324.232V272.456C203.159 257.721 190.733 246.652 175.982 244.193C166.645 242.638 156.957 241.931 147.665 241.975ZM118.271 258.641C123.885 258.641 128.47 263.303 128.47 269.034C128.47 274.746 123.885 279.364 118.271 279.364C112.637 279.364 108.072 274.746 108.072 269.034C108.072 263.303 112.637 258.641 118.271 258.641Z" fill="url(#paint0_linear_1_2)"/>
<path d="M209.938 300.087V324.232C209.938 342.951 194.073 358.706 175.982 358.706H121.692C106.821 358.706 94.515 371.438 94.515 386.336V438.111C94.515 452.847 107.324 461.514 121.692 465.741C138.897 470.802 155.396 471.717 175.982 465.741C189.666 461.778 203.159 453.802 203.159 438.111V417.389H148.869V410.481H203.159H230.336C246.133 410.481 252.02 399.458 257.513 382.914C263.188 365.882 262.946 349.503 257.513 327.654C253.609 311.922 246.153 300.087 230.336 300.087H209.938ZM179.403 431.204C185.038 431.204 189.603 435.822 189.603 441.533C189.603 447.265 185.038 451.926 179.403 451.926C173.789 451.926 169.204 447.265 169.204 441.533C169.204 435.822 173.789 431.204 179.403 431.204Z" fill="url(#paint1_linear_1_2)"/>
<path d="M964.71 283.57H967.876V263.704H975.377V261.336H957.209V263.704H964.71V283.57ZM978.185 283.57H980.89V265.426L986.761 283.567H989.773L995.891 265.488V283.57H998.843V261.336H994.939L988.252 280.384L982.55 261.336H978.185V283.57Z" fill="#646464"/>
<path opacity="0.44382" d="M222.324 500.938C222.324 502.794 220.44 504.631 216.78 506.345C213.119 508.059 207.754 509.617 200.99 510.929C194.227 512.241 186.197 513.282 177.36 513.992C168.523 514.702 159.051 515.067 149.486 515.067C139.92 515.067 130.449 514.702 121.611 513.992C112.774 513.282 104.745 512.241 97.9808 510.929C91.2171 509.617 85.8519 508.059 82.1914 506.345C78.5309 504.631 76.6469 502.794 76.6469 500.938C76.6469 499.083 78.5309 497.245 82.1914 495.531C85.8519 493.817 91.2171 492.259 97.9808 490.947C104.745 489.635 112.774 488.595 121.611 487.885C130.449 487.174 139.92 486.809 149.486 486.809C159.051 486.809 168.523 487.174 177.36 487.885C186.197 488.595 194.227 489.635 200.99 490.947C207.754 492.259 213.119 493.817 216.78 495.531C220.44 497.245 222.324 499.083 222.324 500.938Z" fill="url(#paint2_radial_1_2)"/>
</g>
<defs>
<linearGradient id="paint0_linear_1_2" x1="36.3347" y1="241.973" x2="161.706" y2="348.769" gradientUnits="userSpaceOnUse">
<stop stop-color="#5A9FD4"/>
<stop offset="1" stop-color="#306998"/>
</linearGradient>
<linearGradient id="paint1_linear_1_2" x1="178.097" y1="439.791" x2="133.111" y2="376.774" gradientUnits="userSpaceOnUse">
<stop stop-color="#FFD43B"/>
<stop offset="1" stop-color="#FFE873"/>
</linearGradient>
<radialGradient id="paint2_radial_1_2" cx="0" cy="0" r="1" gradientUnits="userSpaceOnUse" gradientTransform="translate(149.486 500.938) rotate(-90) scale(14.1291 62.0811)">
<stop stop-color="#B8B8B8" stop-opacity="0.498039"/>
<stop offset="1" stop-color="#7F7F7F" stop-opacity="0"/>
</radialGradient>
<clipPath id="clip0_1_2">
<rect width="1024" height="768" fill="white"/>
</clipPath>
</defs>
</svg>
