<svg width="1024" height="768" viewBox="0 0 1024 768" fill="none" xmlns="http://www.w3.org/2000/svg">
<rect width="1024" height="768" fill="#2E2D2D"/>
<g clip-path="url(#clip0_1_2)">
<path d="M216.535 235.002C206.392 235.049 196.705 235.914 188.181 237.422C163.072 241.858 158.513 251.142 158.513 268.264V290.876H217.849V298.414H158.513H136.245C119 298.414 103.9 308.778 99.1771 328.495C93.7291 351.095 93.4875 365.197 99.1771 388.795C103.395 406.36 113.468 418.876 130.712 418.876H151.113V391.768C151.113 372.185 168.059 354.911 188.181 354.911H247.448C263.946 354.911 277.116 341.328 277.116 324.761V268.264C277.116 252.185 263.55 240.106 247.448 237.422C237.255 235.726 226.679 234.955 216.535 235.002ZM184.447 253.189C190.576 253.189 195.581 258.275 195.581 264.53C195.581 270.762 190.576 275.801 184.447 275.801C178.296 275.801 173.313 270.762 173.313 264.53C173.313 258.275 178.296 253.189 184.447 253.189Z" fill="url(#paint0_linear_1_2)"/>
<path d="M284.516 298.414V324.761C284.516 345.187 267.197 362.379 247.448 362.379H188.181C171.947 362.379 158.513 376.272 158.513 392.529V449.026C158.513 465.105 172.496 474.563 188.181 479.176C206.964 484.698 224.975 485.696 247.448 479.176C262.386 474.851 277.116 466.148 277.116 449.026V426.413H217.849V418.876H277.116H306.784C324.029 418.876 330.455 406.848 336.452 388.795C342.647 370.209 342.383 352.337 336.452 328.495C332.19 311.329 324.051 298.414 306.784 298.414H284.516ZM251.183 441.488C257.333 441.488 262.317 446.528 262.317 452.76C262.317 459.014 257.333 464.101 251.183 464.101C245.053 464.101 240.048 459.014 240.048 452.76C240.048 446.528 245.053 441.488 251.183 441.488Z" fill="url(#paint1_linear_1_2)"/>
<path opacity="0.44382" d="M218.522 533C262.438 533 298.038 526.097 298.038 517.582C298.038 509.067 262.438 502.165 218.522 502.165C174.607 502.165 139.007 509.067 139.007 517.582C139.007 526.097 174.607 533 218.522 533Z" fill="url(#paint2_radial_1_2)"/>
</g>
<path d="M508.68 449.756V346.915H537.302V449.756H508.68ZM471.535 412.682V384.06H574.376V412.682H471.535Z" fill="white"/>
<path fill-rule="evenodd" clip-rule="evenodd" d="M720.727 277.641H791.909C801.746 277.641 811.18 281.534 818.137 288.464L821.136 291.453C828.092 298.384 837.527 302.277 847.363 302.277H893.818C900.647 302.277 906.474 304.682 911.302 309.493C916.13 314.303 918.545 320.11 918.545 326.913V462.413C918.545 469.216 916.13 475.023 911.302 479.834C906.474 484.644 900.647 487.05 893.818 487.05H720.727C713.899 487.05 708.071 484.644 703.242 479.834C698.414 475.023 696 469.216 696 462.413V302.277C696 295.474 698.414 289.667 703.242 284.856C708.071 280.046 713.899 277.641 720.727 277.641Z" fill="url(#paint3_linear_1_2)"/>
<path fill-rule="evenodd" clip-rule="evenodd" d="M742.273 462.413V351.55C742.273 344.747 744.687 338.94 749.515 334.129C754.343 329.319 760.172 326.913 767 326.913H940.091C946.919 326.913 952.747 329.319 957.575 334.129C962.404 338.94 964.818 344.747 964.818 351.55V462.413C964.818 469.216 962.404 475.023 957.575 479.834C952.747 484.644 946.919 487.05 940.091 487.05H717.545C724.374 487.05 730.202 484.644 735.03 479.834C739.858 475.023 742.273 469.216 742.273 462.413Z" fill="url(#paint4_linear_1_2)"/>
<defs>
<linearGradient id="paint0_linear_1_2" x1="95" y1="235" x2="231.815" y2="351.593" gradientUnits="userSpaceOnUse">
<stop stop-color="#5A9FD4"/>
<stop offset="1" stop-color="#306998"/>
</linearGradient>
<linearGradient id="paint1_linear_1_2" x1="249.757" y1="450.859" x2="200.674" y2="382.075" gradientUnits="userSpaceOnUse">
<stop stop-color="#FFD43B"/>
<stop offset="1" stop-color="#FFE873"/>
</linearGradient>
<radialGradient id="paint2_radial_1_2" cx="0" cy="0" r="1" gradientUnits="userSpaceOnUse" gradientTransform="translate(218.522 517.582) rotate(-90) scale(15.4176 67.7716)">
<stop stop-color="#B8B8B8" stop-opacity="0.498039"/>
<stop offset="1" stop-color="#7F7F7F" stop-opacity="0"/>
</radialGradient>
<linearGradient id="paint3_linear_1_2" x1="832" y1="277.641" x2="832" y2="416.141" gradientUnits="userSpaceOnUse">
<stop stop-color="#FBA200"/>
<stop offset="1" stop-color="#FF7300"/>
</linearGradient>
<linearGradient id="paint4_linear_1_2" x1="841.181" y1="326.913" x2="841.181" y2="487.05" gradientUnits="userSpaceOnUse">
<stop stop-color="#FAC227"/>
<stop offset="1" stop-color="#FAA627"/>
</linearGradient>
<clipPath id="clip0_1_2">
<rect width="246" height="298" fill="white" transform="translate(95 235)"/>
</clipPath>
</defs>
</svg>
