<svg width="1024" height="768" viewBox="0 0 1024 768" fill="none" xmlns="http://www.w3.org/2000/svg">
<rect width="1024" height="768" fill="#2E2D2D"/>
<path d="M0 183H749C859.457 183 949 272.543 949 383V388C949 498.457 859.457 588 749 588H0V183Z" fill="#193D5B"/>
<g clip-path="url(#clip0_1_2)">
<path d="M213.535 235.002C203.392 235.049 193.705 235.914 185.181 237.422C160.072 241.858 155.513 251.142 155.513 268.264V290.876H214.849V298.414H155.513H133.245C116 298.414 100.9 308.778 96.1771 328.495C90.7291 351.095 90.4875 365.197 96.1771 388.795C100.395 406.36 110.468 418.876 127.712 418.876H148.113V391.768C148.113 372.185 165.059 354.911 185.181 354.911H244.448C260.946 354.911 274.116 341.328 274.116 324.761V268.264C274.116 252.185 260.55 240.106 244.448 237.422C234.255 235.726 223.679 234.955 213.535 235.002ZM181.447 253.189C187.576 253.189 192.581 258.275 192.581 264.53C192.581 270.762 187.576 275.801 181.447 275.801C175.296 275.801 170.313 270.762 170.313 264.53C170.313 258.275 175.296 253.189 181.447 253.189Z" fill="url(#paint0_linear_1_2)"/>
<path d="M281.516 298.414V324.761C281.516 345.187 264.197 362.379 244.448 362.379H185.181C168.947 362.379 155.513 376.272 155.513 392.529V449.026C155.513 465.105 169.496 474.563 185.181 479.176C203.964 484.698 221.975 485.696 244.448 479.176C259.386 474.851 274.116 466.148 274.116 449.026V426.413H214.849V418.876H274.116H303.784C321.029 418.876 327.455 406.848 333.452 388.795C339.647 370.209 339.383 352.337 333.452 328.495C329.19 311.329 321.051 298.414 303.784 298.414H281.516ZM248.183 441.488C254.333 441.488 259.317 446.528 259.317 452.76C259.317 459.014 254.333 464.101 248.183 464.101C242.053 464.101 237.048 459.014 237.048 452.76C237.048 446.528 242.053 441.488 248.183 441.488Z" fill="url(#paint1_linear_1_2)"/>
<path opacity="0.44382" d="M215.522 533C259.438 533 295.038 526.097 295.038 517.582C295.038 509.067 259.438 502.165 215.522 502.165C171.607 502.165 136.007 509.067 136.007 517.582C136.007 526.097 171.607 533 215.522 533Z" fill="url(#paint2_radial_1_2)"/>
</g>
<path d="M512.68 421.756V318.915H541.302V421.756H512.68ZM475.535 384.682V356.06H578.376V384.682H475.535Z" fill="white"/>
<path d="M884.732 303.536V464.445C884.732 475.206 875.938 484 865.177 484H735.538C734.941 484 734.345 483.97 733.779 483.911C733.183 483.881 732.616 483.791 732.05 483.672C731.752 483.643 731.454 483.583 731.186 483.493C729.546 483.136 727.966 482.539 726.535 481.764C726.505 481.764 726.505 481.735 726.505 481.735C726.416 481.705 726.327 481.675 726.267 481.616C725.7 481.317 725.164 480.989 724.657 480.632C724.031 480.244 723.435 479.797 722.898 479.29C722.511 478.992 722.153 478.634 721.796 478.277C721.11 477.621 720.484 476.876 719.918 476.1C719.739 475.862 719.56 475.594 719.381 475.355C718.964 474.759 718.576 474.133 718.278 473.507C717.98 473 717.741 472.464 717.533 471.927C717.294 471.391 717.086 470.824 716.907 470.228C716.758 469.841 716.668 469.483 716.579 469.066C716.489 468.738 716.4 468.38 716.34 468.022C716.28 467.724 716.251 467.396 716.191 467.098C716.191 467.038 716.162 466.979 716.162 466.92C716.072 466.114 716.013 465.28 716.013 464.446V354.063L786.064 284.011H865.177C867.472 284.011 869.678 284.398 871.705 285.173C877.25 287.111 881.632 291.523 883.569 297.037C883.957 297.991 884.225 298.975 884.404 299.989C884.523 300.555 884.583 301.151 884.643 301.718C884.702 302.313 884.732 302.94 884.732 303.536Z" fill="#6AB5D3"/>
<path d="M766.51 354.058C777.261 354.058 786.058 345.261 786.058 334.51V284L716 354.058H766.51Z" fill="#4884B9"/>
<path opacity="0.06" d="M884.732 303.536V464.445C884.732 475.206 875.938 484 865.177 484H735.538C734.941 484 734.345 483.97 733.779 483.911C733.183 483.881 732.616 483.791 732.05 483.672C731.752 483.643 731.454 483.583 731.186 483.493C729.546 483.136 727.966 482.539 726.535 481.764C726.505 481.764 726.505 481.735 726.505 481.735C726.416 481.705 726.327 481.675 726.267 481.616C725.7 481.317 725.164 480.989 724.657 480.632C724.031 480.244 723.435 479.797 722.898 479.29C722.511 478.992 722.153 478.634 721.796 478.277C721.11 477.621 720.484 476.876 719.918 476.1C719.739 475.862 719.56 475.594 719.381 475.355C718.964 474.759 718.576 474.133 718.278 473.507C717.98 473 717.741 472.464 717.533 471.927C717.294 471.391 717.086 470.824 716.907 470.228C716.758 469.841 716.668 469.483 716.579 469.066C716.489 468.738 716.4 468.38 716.34 468.022L796.169 388.193L800.76 383.632L804.635 379.728H804.664L884.404 299.989C884.523 300.555 884.583 301.151 884.643 301.718C884.702 302.313 884.732 302.94 884.732 303.536Z" fill="#040000"/>
<path opacity="0.1" d="M884.553 458.96V463.372C884.553 474.104 875.759 482.897 865.028 482.897H735.388C731.096 482.897 727.101 481.496 723.882 479.111C722.213 477.918 720.782 476.458 719.56 474.789C718.099 472.761 716.996 470.466 716.4 467.962C716.311 467.693 716.251 467.396 716.191 467.098C716.191 467.038 716.162 466.978 716.162 466.919L717.145 465.966C717.264 466.263 717.384 466.562 717.503 466.86C720.573 473.686 727.459 478.515 735.389 478.515H865.028C875.759 478.515 884.553 469.721 884.553 458.96Z" fill="#040000"/>
<defs>
<linearGradient id="paint0_linear_1_2" x1="92" y1="235" x2="228.815" y2="351.593" gradientUnits="userSpaceOnUse">
<stop stop-color="#5A9FD4"/>
<stop offset="1" stop-color="#306998"/>
</linearGradient>
<linearGradient id="paint1_linear_1_2" x1="246.757" y1="450.859" x2="197.674" y2="382.075" gradientUnits="userSpaceOnUse">
<stop stop-color="#FFD43B"/>
<stop offset="1" stop-color="#FFE873"/>
</linearGradient>
<radialGradient id="paint2_radial_1_2" cx="0" cy="0" r="1" gradientUnits="userSpaceOnUse" gradientTransform="translate(215.522 517.582) rotate(-90) scale(15.4176 67.7716)">
<stop stop-color="#B8B8B8" stop-opacity="0.498039"/>
<stop offset="1" stop-color="#7F7F7F" stop-opacity="0"/>
</radialGradient>
<clipPath id="clip0_1_2">
<rect width="246" height="298" fill="white" transform="translate(92 235)"/>
</clipPath>
</defs>
</svg>
